<svg id="result" xmlns="http://www.w3.org/2000/svg" width="216.991" height="197.467" viewBox="0 0 216.991 197.467">
  <path id="Path_17" data-name="Path 17" d="M155.348,44.674A4.674,4.674,0,1,1,150.674,40,4.674,4.674,0,0,1,155.348,44.674Zm0,0" transform="translate(-77.761 -21.304)" fill="inherit"/>
  <path id="Path_18" data-name="Path 18" d="M115.348,44.674A4.674,4.674,0,1,1,110.674,40,4.674,4.674,0,0,1,115.348,44.674Zm0,0" transform="translate(-56.457 -21.304)" fill="inherit"/>
  <path id="Path_19" data-name="Path 19" d="M75.348,44.674A4.674,4.674,0,1,1,70.674,40,4.674,4.674,0,0,1,75.348,44.674Zm0,0" transform="translate(-35.152 -21.304)" fill="inherit"/>
  <path id="Path_21" data-name="Path 21" d="M255.348,4.674A4.674,4.674,0,1,1,250.674,0,4.674,4.674,0,0,1,255.348,4.674Zm0,0" transform="translate(-142.022)" fill="inherit"/>
  <path id="Path_22" data-name="Path 22" d="M204.276,0h-76.71a4.245,4.245,0,0,0,0,8.49h76.71a4.246,4.246,0,0,1,4.238,4.245V33.96H8.476V12.735A4.245,4.245,0,0,1,12.714,8.49h76.71a4.245,4.245,0,0,0,0-8.49H12.714A12.739,12.739,0,0,0,0,12.735v169.8a12.739,12.739,0,0,0,12.714,12.735H204.276a12.739,12.739,0,0,0,12.714-12.735V12.735A12.739,12.739,0,0,0,204.276,0Zm0,186.781H12.714a4.246,4.246,0,0,1-4.238-4.245V42.45H208.515V182.536A4.246,4.246,0,0,1,204.276,186.781Zm0,0" fill="inherit"/>
  <g id="Group_27" data-name="Group 27" transform="translate(-16 8)">
    <path id="Path_20" data-name="Path 20" d="M186.761,140a60.76,60.76,0,1,0,60.76,60.761A60.829,60.829,0,0,0,186.761,140Zm51.2,56.087h-18.82a32.782,32.782,0,0,0-27.7-27.7v-18.82A51.493,51.493,0,0,1,237.958,196.087ZM170.245,217.28l0,0v0a23.358,23.358,0,1,1,16.517,6.854A23.227,23.227,0,0,1,170.243,217.276Zm11.842-67.717,4.431-.228,4.917.228v18.82c0,3.467-9.213.006-9.348,0h0a32.7,32.7,0,0,0-21.522,51.962l-6.7,19.924-6.609-6.611a51.41,51.41,0,0,1,34.835-84.1Zm4.674,102.61a51.013,51.013,0,0,1-32.9-11.9l6.7-19.924,6.609,6.611a32.7,32.7,0,0,0,51.964-21.527h18.82A51.483,51.483,0,0,1,186.761,252.173Zm0,0" transform="translate(-67.109 -94.293)" fill="inherit"/>
    <path id="Path_23" data-name="Path 23" d="M60.761,0a60.761,60.761,0,1,0,60.761,60.761A60.829,60.829,0,0,0,60.761,0Zm51.2,56.087v9.342l-18.816.006,0-9.348a32.782,32.782,0,0,0-27.7-27.7V9.563A51.493,51.493,0,0,1,111.958,56.087ZM44.245,77.28l0,0v0A23.358,23.358,0,1,1,60.761,84.13,23.227,23.227,0,0,1,44.243,77.276ZM56.087,9.563v18.82A32.7,32.7,0,0,0,34.565,80.345L21.252,93.658a51.41,51.41,0,0,1,34.835-84.1Zm4.674,102.61a51.013,51.013,0,0,1-32.9-11.9L41.174,86.956A32.7,32.7,0,0,0,93.138,65.429h18.82A51.483,51.483,0,0,1,60.761,112.173Zm0,0" transform="translate(36.65 128.706) rotate(-60)" fill="inherit"/>
  </g>
</svg>
