<svg xmlns="http://www.w3.org/2000/svg" width="894.243" height="444.918" viewBox="0 0 894.243 444.918">
  <g id="Logo" transform="translate(-3884 260)">
    <text id="COVID_" data-name="COVID  " transform="translate(3884 -74)" fill="#1e3e65" font-size="199" font-family="Rubik-Regular, Rubik"><tspan x="0" y="0" xml:space="preserve">COVID  </tspan></text>
    <text id="TRACKER" transform="translate(3884 135.918)" fill="#1e3e65" font-size="197" font-family="Rubik-Regular, Rubik"><tspan x="0" y="0">TRACKER</tspan></text>
    <g id="Page-1" transform="translate(4543.34 -224.929)">
      <g id="_022---Surgical-Mask" data-name="022---Surgical-Mask" transform="translate(0)">
        <path id="Shape" d="M18.733,30.655A174.71,174.71,0,0,0,70.8,38.614a174.71,174.71,0,0,0,52.07-7.959,3.916,3.916,0,1,0-2.326-7.478,166.417,166.417,0,0,1-99.466,0,3.916,3.916,0,0,0-2.326,7.478Z" transform="translate(46.648 67.038)" fill="#1e3e65"/>
        <path id="Shape-2" data-name="Shape" d="M19.278,24.788a335.274,335.274,0,0,0,51.5,3.939,335.274,335.274,0,0,0,51.5-3.939,3.915,3.915,0,1,0-1.206-7.736,330.707,330.707,0,0,1-100.585,0,3.915,3.915,0,0,0-1.206,7.736Z" transform="translate(46.674 49.544)" fill="#1e3e65"/>
        <path id="Shape-3" data-name="Shape" d="M120.19,30.473a112.1,112.1,0,0,1-98.416,0A3.915,3.915,0,1,0,18.4,37.521a119.8,119.8,0,0,0,105.166,0,3.915,3.915,0,1,0-3.375-7.047Z" transform="translate(46.47 87.363)" fill="#1e3e65"/>
        <path id="Shape-4" data-name="Shape" d="M219.243,39.145h-20.3a11.745,11.745,0,0,0-11.025-7.83h-5.912a48.3,48.3,0,0,1-37.244-18.322,35.2,35.2,0,0,0-54.623,0A48.3,48.3,0,0,1,52.892,31.315H46.981a11.745,11.745,0,0,0-11.025,7.83H15.66A15.66,15.66,0,0,0,0,54.806V74.381c0,20.577,18.424,39.515,40.787,42.6A84.4,84.4,0,0,0,111,171.893a57.452,57.452,0,0,0,12.92,0,84.4,84.4,0,0,0,70.2-54.912c22.363-3.085,40.787-22.022,40.787-42.6V54.806A15.66,15.66,0,0,0,219.243,39.145Zm-172.262,0h5.912A56.126,56.126,0,0,0,96.22,17.926a27.366,27.366,0,0,1,42.474,0,56.11,56.11,0,0,0,43.316,21.22h5.912a3.915,3.915,0,0,1,3.915,3.915v3.915l-11.745-.02h-.078a61.991,61.991,0,0,1-47.411-24.1,19.532,19.532,0,0,0-30.33.035A61.94,61.94,0,0,1,54.9,46.948h-.09l-11.745.027V43.06a3.915,3.915,0,0,1,3.915-3.915ZM7.83,74.381V54.806a7.83,7.83,0,0,1,7.83-7.83H35.235v39.15a88.633,88.633,0,0,0,2.917,22.406C22.6,104.785,7.83,91.5,7.83,74.381ZM123.1,164.106a50.411,50.411,0,0,1-11.291,0A76.61,76.61,0,0,1,47.45,112.2v-.039a80.258,80.258,0,0,1-4.385-26.039V54.806l11.745-.02a69.363,69.363,0,0,0,53.538-26.943,11.706,11.706,0,0,1,18.185-.031A69.782,69.782,0,0,0,180,54.786h.09l11.745.02v31.32a80.258,80.258,0,0,1-4.373,26.031v.039a76.61,76.61,0,0,1-64.367,51.91ZM227.073,74.381c0,17.117-14.768,30.4-30.322,34.159a88.633,88.633,0,0,0,2.917-22.414V46.975h19.575a7.83,7.83,0,0,1,7.83,7.83Z" transform="translate(0 -0.002)" fill="#1e3e65"/>
      </g>
    </g>
  </g>
</svg>
