<svg id="list" xmlns="http://www.w3.org/2000/svg" width="217.55" height="195.271" viewBox="0 0 217.55 195.271">
  <path id="Path_9" data-name="Path 9" d="M155.348,44.674A4.674,4.674,0,1,1,150.674,40,4.674,4.674,0,0,1,155.348,44.674Zm0,0" transform="translate(-77.761 -21.304)" fill="inherit"/>
  <path id="Path_10" data-name="Path 10" d="M115.348,44.674A4.674,4.674,0,1,1,110.674,40,4.674,4.674,0,0,1,115.348,44.674Zm0,0" transform="translate(-56.457 -21.304)" fill="inherit"/>
  <path id="Path_11" data-name="Path 11" d="M75.348,44.674A4.674,4.674,0,1,1,70.674,40,4.674,4.674,0,0,1,75.348,44.674Zm0,0" transform="translate(-35.152 -21.304)" fill="inherit"/>
  <path id="Path_12" data-name="Path 12" d="M203.606,140H69.719A3.953,3.953,0,0,0,66,144.152v24.91a3.953,3.953,0,0,0,3.719,4.152H203.606a3.953,3.953,0,0,0,3.719-4.152v-24.91A3.953,3.953,0,0,0,203.606,140Zm-3.719,24.91H73.438V148.3H199.887Zm0,0" transform="translate(-28.152 -81.834)" fill="inherit"/>
  <path id="Path_29" data-name="Path 29" d="M203.606,140H69.719A3.953,3.953,0,0,0,66,144.152v24.91a3.953,3.953,0,0,0,3.719,4.152H203.606a3.953,3.953,0,0,0,3.719-4.152v-24.91A3.953,3.953,0,0,0,203.606,140Zm-3.719,24.91H73.438V148.3H199.887Zm0,0" transform="translate(-28.152 -41.834)" fill="inherit"/>
  <path id="Path_30" data-name="Path 30" d="M203.606,140H69.719A3.953,3.953,0,0,0,66,144.152v24.91a3.953,3.953,0,0,0,3.719,4.152H203.606a3.953,3.953,0,0,0,3.719-4.152v-24.91A3.953,3.953,0,0,0,203.606,140Zm-3.719,24.91H73.438V148.3H199.887Zm0,0" transform="translate(-28.152 -1.834)" fill="inherit"/>
  <path id="Path_15" data-name="Path 15" d="M255.348,4.674A4.674,4.674,0,1,1,250.674,0,4.673,4.673,0,0,1,255.348,4.674Zm0,0" transform="translate(-142.022)" fill="inherit"/>
  <path id="Path_16" data-name="Path 16" d="M204.8,0H127.9a4.245,4.245,0,1,0,0,8.49H204.8a4.251,4.251,0,0,1,4.249,4.245V33.96H8.5V12.735A4.251,4.251,0,0,1,12.747,8.49H89.655a4.245,4.245,0,1,0,0-8.49H12.747A12.755,12.755,0,0,0,0,12.735v169.8a12.755,12.755,0,0,0,12.747,12.735H204.8a12.755,12.755,0,0,0,12.747-12.735V12.735A12.755,12.755,0,0,0,204.8,0Zm0,186.781H12.747A4.251,4.251,0,0,1,8.5,182.536V42.45H209.052V182.536A4.251,4.251,0,0,1,204.8,186.781Zm0,0" fill="inherit"/>
</svg>
