<svg id="browser" xmlns="http://www.w3.org/2000/svg" width="217.345" height="195.271" viewBox="0 0 217.345 195.271">
  <path id="Path_1" data-name="Path 1" d="M154.49,44.245A4.245,4.245,0,1,1,150.245,40,4.245,4.245,0,0,1,154.49,44.245Zm0,0" transform="translate(-84.023 -23.02)" fill="#inherit"/>
  <path id="Path_2" data-name="Path 2" d="M114.49,44.245A4.245,4.245,0,1,1,110.245,40,4.245,4.245,0,0,1,114.49,44.245Zm0,0" transform="translate(-61.003 -23.02)" fill="#inherit"/>
  <path id="Path_3" data-name="Path 3" d="M74.49,44.245A4.245,4.245,0,1,1,70.245,40,4.245,4.245,0,0,1,74.49,44.245Zm0,0" transform="translate(-37.983 -23.02)" fill="#inherit"/>
  <path id="Path_4" data-name="Path 4" d="M236.047,142.62a4.244,4.244,0,0,0-3.922-2.62H138.735a4.245,4.245,0,0,0-4.245,4.245v97.636h-4.245a4.245,4.245,0,1,0,0,8.49h33.96a4.245,4.245,0,1,0,0-8.49H159.96V199.43h72.165a4.245,4.245,0,0,0,3-7.246L212.66,169.715l22.467-22.469A4.246,4.246,0,0,0,236.047,142.62ZM142.98,241.881V148.49h8.49v93.391Zm60.674-75.167a4.244,4.244,0,0,0,0,6l18.222,18.224H159.96V148.49h61.916Zm0,0" transform="translate(-72.513 -80.57)" fill="#inherit"/>
  <path id="Path_5" data-name="Path 5" d="M254.49,4.245A4.245,4.245,0,1,1,250.245,0,4.245,4.245,0,0,1,254.49,4.245Zm0,0" transform="translate(-141.572)" fill="#inherit"/>
  <path id="Path_6" data-name="Path 6" d="M204.61,0H127.775a4.245,4.245,0,1,0,0,8.49H204.61a4.249,4.249,0,0,1,4.245,4.245V33.96H8.49V12.735A4.249,4.249,0,0,1,12.735,8.49H89.57a4.245,4.245,0,1,0,0-8.49H12.735A12.749,12.749,0,0,0,0,12.735v169.8a12.749,12.749,0,0,0,12.735,12.735H204.61a12.749,12.749,0,0,0,12.735-12.735V12.735A12.749,12.749,0,0,0,204.61,0Zm0,186.781H12.735a4.249,4.249,0,0,1-4.245-4.245V42.45H208.855V182.536A4.249,4.249,0,0,1,204.61,186.781Zm0,0" fill="#inherit"/>
</svg>
