<svg id="chart" xmlns="http://www.w3.org/2000/svg" width="194.972" height="194.972" viewBox="0 0 194.972 194.972">
  <path id="Path_7" data-name="Path 7" d="M187.616,3.808A3.808,3.808,0,1,1,183.808,0,3.807,3.807,0,0,1,187.616,3.808Zm0,0" transform="translate(-111.455)" fill="#1e3e65"/>
  <path id="Path_8" data-name="Path 8" d="M72.543,148.294a71.873,71.873,0,0,0,39.247-11.562l60.524,60.523a3.808,3.808,0,0,0,5.385,0L193.857,181.1a3.807,3.807,0,0,0,0-5.385l-60.523-60.524A71.869,71.869,0,0,0,144.9,75.941a72.607,72.607,0,0,0-2.466-18.8c-2.65-8.227.235.292-2.694-8.077A72.867,72.867,0,0,0,90.3,5.605a3.808,3.808,0,0,0-1.873,7.383,65.207,65.207,0,0,1,45.392,41.994c.049.128,2.265,8.506,2.265,8.506A64.83,64.83,0,1,1,56.31,13.075,3.808,3.808,0,0,0,54.4,5.7,72.437,72.437,0,0,0,72.543,148.294Zm102.463,40.883-42.321-42.323,10.771-10.771L185.778,178.4Zm-46.2-67.745,9.264,9.264L127.3,141.469l-9.264-9.264A72.527,72.527,0,0,0,128.807,121.432Zm0,0" transform="translate(0 -3.398)" fill="#1e3e65"/>
</svg>
